<svg width="31" height="30" viewBox="0 0 31 30" fill="none" xmlns="http://www.w3.org/2000/svg">
<path d="M8.10375 28.2363L0.166992 30L1.93071 22.0632C0.805152 19.9584 0.166992 17.5537 0.166992 15C0.166992 6.71572 6.88272 0 15.167 0C23.4512 0 30.167 6.71572 30.167 15C30.167 23.2842 23.4512 30 15.167 30C12.6132 30 10.2086 29.3619 8.10375 28.2363ZM8.53812 25.0665L9.51841 25.5907C11.2407 26.5117 13.1652 27 15.167 27C21.7944 27 27.167 21.6275 27.167 15C27.167 8.37258 21.7944 3 15.167 3C8.53957 3 3.16699 8.37258 3.16699 15C3.16699 17.0017 3.65523 18.9263 4.57623 20.6486L5.10043 21.6288L4.11823 26.0487L8.53812 25.0665Z" fill="black"/>
</svg>
