<svg width="24" height="25" viewBox="0 0 24 25" fill="none" xmlns="http://www.w3.org/2000/svg">
<path d="M3 3.5C2.44772 3.5 2 3.94772 2 4.5V10.5C2 11.0523 2.44772 11.5 3 11.5H10C10.5523 11.5 11 11.0523 11 10.5V4.5C11 3.94772 10.5523 3.5 10 3.5H3ZM4 9.5V5.5H9V9.5H4ZM3 13.5C2.44772 13.5 2 13.9477 2 14.5V20.5C2 21.0523 2.44772 21.5 3 21.5H10C10.5523 21.5 11 21.0523 11 20.5V14.5C11 13.9477 10.5523 13.5 10 13.5H3ZM4 19.5V15.5H9V19.5H4ZM13 4.5C13 3.94772 13.4477 3.5 14 3.5H21C21.5523 3.5 22 3.94772 22 4.5V10.5C22 11.0523 21.5523 11.5 21 11.5H14C13.4477 11.5 13 11.0523 13 10.5V4.5ZM15 5.5V9.5H20V5.5H15ZM14 13.5C13.4477 13.5 13 13.9477 13 14.5V20.5C13 21.0523 13.4477 21.5 14 21.5H21C21.5523 21.5 22 21.0523 22 20.5V14.5C22 13.9477 21.5523 13.5 21 13.5H14ZM15 19.5V15.5H20V19.5H15Z" fill="black"/>
</svg>
