<svg width="17" height="17" viewBox="0 0 17 17" fill="none" xmlns="http://www.w3.org/2000/svg">
<path d="M3.4801 16.3762C3.24695 16.3762 3.01477 16.312 2.80798 16.1841C2.42798 15.9495 2.20129 15.5428 2.20129 15.0963V13.2222C0.863282 11.5278 0.285035 9.41184 0.571778 7.24051C1.03149 3.75681 3.89612 0.901485 7.38269 0.451626C9.8385 0.134516 12.2491 0.939065 13.9991 2.65773C15.7493 4.37639 16.5961 6.76966 16.3229 9.22418C15.927 12.7789 13.0552 15.7033 9.49475 16.178C8.07532 16.3662 6.63977 16.1697 5.32276 15.6059L4.0531 16.24C3.87122 16.3308 3.67517 16.3762 3.4801 16.3762Z" fill="#D7E0EB"/>
</svg>
