<svg width="30" height="31" viewBox="0 0 30 31" fill="none" xmlns="http://www.w3.org/2000/svg">
<path d="M15 28C8.09644 28 2.5 22.4035 2.5 15.5C2.5 8.59644 8.09644 3 15 3C21.9035 3 27.5 8.59644 27.5 15.5C27.5 22.4035 21.9035 28 15 28ZM15 25.5C20.5229 25.5 25 21.0229 25 15.5C25 9.97715 20.5229 5.5 15 5.5C9.47715 5.5 5 9.97715 5 15.5C5 21.0229 9.47715 25.5 15 25.5ZM20.625 9.875L17.5 18L9.375 21.125L12.5 13L20.625 9.875ZM15 16.75C15.6904 16.75 16.25 16.1904 16.25 15.5C16.25 14.8096 15.6904 14.25 15 14.25C14.3096 14.25 13.75 14.8096 13.75 15.5C13.75 16.1904 14.3096 16.75 15 16.75Z" fill="black"/>
</svg>
