<svg width="6" height="24" viewBox="0 0 6 24" fill="none" xmlns="http://www.w3.org/2000/svg">
<path fill-rule="evenodd" clip-rule="evenodd" d="M2.65085 14.2157C1.22462 14.2226 0.0628789 13.0719 0.0560269 11.6457C0.0491749 10.2195 1.19981 9.05772 2.62604 9.05087C4.05227 9.04402 5.21402 10.1947 5.22087 11.6209C5.22772 13.0471 4.07709 14.2089 2.65085 14.2157ZM2.60718 5.17725C1.18095 5.1841 0.0192015 4.03347 0.0123495 2.60724C0.00549754 1.181 1.15613 0.0192599 2.58236 0.0124079C4.0086 0.00555586 5.17034 1.15619 5.17719 2.58242C5.18404 4.00865 4.03341 5.1704 2.60718 5.17725ZM0.0992599 20.6842C0.106112 22.1104 1.26786 23.2611 2.69409 23.2542C4.12032 23.2474 5.27095 22.0856 5.2641 20.6594C5.25725 19.2331 4.09551 18.0825 2.66927 18.0894C1.24304 18.0962 0.0924079 19.258 0.0992599 20.6842Z" fill="#AFC1D9"/>
</svg>
