<svg width="30" height="30" viewBox="0 0 30 30" fill="none" xmlns="http://www.w3.org/2000/svg">
<path d="M24 18.9999V10.9999C23.9996 10.6492 23.9071 10.3047 23.7315 10.0011C23.556 9.69742 23.3037 9.44526 23 9.2699L16 5.2699C15.696 5.09437 15.3511 5.00195 15 5.00195C14.6489 5.00195 14.304 5.09437 14 5.2699L7 9.2699C6.69626 9.44526 6.44398 9.69742 6.26846 10.0011C6.09294 10.3047 6.00036 10.6492 6 10.9999V18.9999C6.00036 19.3506 6.09294 19.6951 6.26846 19.9987C6.44398 20.3024 6.69626 20.5545 7 20.7299L14 24.7299C14.304 24.9054 14.6489 24.9979 15 24.9979C15.3511 24.9979 15.696 24.9054 16 24.7299L23 20.7299C23.3037 20.5545 23.556 20.3024 23.7315 19.9987C23.9071 19.6951 23.9996 19.3506 24 18.9999Z" stroke="black" stroke-width="2" stroke-linecap="round" stroke-linejoin="round"/>
<path d="M10.5 7.20996L15 9.80996L19.5 7.20996" stroke="black" stroke-width="2" stroke-linecap="round" stroke-linejoin="round"/>
<path d="M10.5 22.79V17.6L6 15" stroke="black" stroke-width="2" stroke-linecap="round" stroke-linejoin="round"/>
<path d="M24 15L19.5 17.6V22.79" stroke="black" stroke-width="2" stroke-linecap="round" stroke-linejoin="round"/>
<path d="M6.26953 9.95996L14.9995 15.01L23.7295 9.95996" stroke="black" stroke-width="2" stroke-linecap="round" stroke-linejoin="round"/>
<path d="M15 25.08V15" stroke="black" stroke-width="2" stroke-linecap="round" stroke-linejoin="round"/>
</svg>
