<svg width="17" height="17" viewBox="0 0 17 17" fill="none" xmlns="http://www.w3.org/2000/svg">
<path d="M16.3627 0.521067C16.2301 0.388473 16.0311 0.34768 15.8572 0.417366L0.794672 6.43944C0.622297 6.50831 0.506891 6.67239 0.500297 6.8578C0.493704 7.04321 0.597204 7.21507 0.764172 7.296L6.70377 10.1753L9.58445 16.1121C9.66302 16.274 9.82708 16.3762 10.0061 16.3762C10.0117 16.3762 10.0173 16.3761 10.0229 16.3759C10.2084 16.3693 10.3725 16.2539 10.4414 16.0817L16.4665 1.02639C16.5361 0.852377 16.4953 0.653597 16.3627 0.521067Z" fill="#B0C2D9" fill-opacity="0.5"/>
<path d="M16.363 0.521484L6.7041 10.1757L9.58479 16.1125C9.66335 16.2744 9.82741 16.3766 10.0064 16.3766C10.012 16.3766 10.0176 16.3765 10.0232 16.3762C10.2087 16.3697 10.3728 16.2543 10.4418 16.082L16.4668 1.02681C16.5364 0.852795 16.4956 0.654015 16.363 0.521484Z" fill="#D7E0EB"/>
</svg>
